<?xml version="1.0" encoding="UTF-8" standalone="no"?>
<!-- Generator: Adobe Illustrator 15.0.0, SVG Export Plug-In . SVG Version: 6.00 Build 0)  -->

<svg
   xmlns:dc="http://purl.org/dc/elements/1.1/"
   xmlns:cc="http://creativecommons.org/ns#"
   xmlns:rdf="http://www.w3.org/1999/02/22-rdf-syntax-ns#"
   xmlns:svg="http://www.w3.org/2000/svg"
   xmlns="http://www.w3.org/2000/svg"
   xmlns:xlink="http://www.w3.org/1999/xlink"
   xmlns:sodipodi="http://sodipodi.sourceforge.net/DTD/sodipodi-0.dtd"
   xmlns:inkscape="http://www.inkscape.org/namespaces/inkscape"
   version="1.1"
   id="Layer_2_1_"
   x="0px"
   y="0px"
   width="16"
   height="16"
   viewBox="0 0 16 16"
   enable-background="new 0 0 146.98 97.838"
   xml:space="preserve"
   sodipodi:docname="keyboard.svg"
   inkscape:version="0.92.3 (2405546, 2018-03-11)"><metadata
   id="metadata3903"><rdf:RDF><cc:Work
       rdf:about=""><dc:format>image/svg+xml</dc:format><dc:type
         rdf:resource="http://purl.org/dc/dcmitype/StillImage" /><dc:title></dc:title></cc:Work></rdf:RDF></metadata><defs
   id="defs3901" /><sodipodi:namedview
   pagecolor="#ffffff"
   bordercolor="#666666"
   borderopacity="1"
   objecttolerance="10"
   gridtolerance="10"
   guidetolerance="10"
   inkscape:pageopacity="0"
   inkscape:pageshadow="2"
   inkscape:window-width="1920"
   inkscape:window-height="1015"
   id="namedview3899"
   showgrid="false"
   inkscape:zoom="13.850004"
   inkscape:cx="41.402904"
   inkscape:cy="14.661321"
   inkscape:window-x="0"
   inkscape:window-y="0"
   inkscape:window-maximized="1"
   inkscape:current-layer="Layer_2_1_" />
<g
   id="g3896"
   transform="matrix(0.28180396,0,0,0.28180396,-12.37072,-6.6455012)">
	<defs
   id="defs3829">
		<rect
   id="SVGID_1_"
   x="15.572"
   y="23.601"
   width="114.021"
   height="54.691002" />
	</defs>
	<clipPath
   id="SVGID_2_">
		<use
   xlink:href="#SVGID_1_"
   overflow="visible"
   id="use3831"
   style="overflow:visible"
   x="0"
   y="0"
   width="100%"
   height="100%" />
	</clipPath>
	<path
   style="fill:none;stroke:#a5efac;stroke-width:1.79999995"
   clip-path="url(#SVGID_2_)"
   d="m 16.677734,26.097656 c -0.266338,0.442768 -0.443359,1.01256 -0.443359,1.761719 v 46.410156 c 0,0 2.34e-4,3.240235 3.240234,3.240235 H 125.21484 c 0,0 3.24024,-2.35e-4 3.24024,-3.240235 V 27.859375 c 0,0 -0.0142,-0.906428 -0.4961,-1.761719 z"
   transform="translate(0.23775941,-0.11887971)"
   id="path3834"
   inkscape:connector-curvature="0" />
	<path
   clip-path="url(#SVGID_2_)"
   d="m 43.614,63.057 c 0,0 -0.648,0 -0.648,0.647 v 5.624 c 0,0 0,0.648 0.648,0.648 h 57.662 c 0,0 0.648,0 0.648,-0.648 v -5.624 c 0,0 0,-0.647 -0.648,-0.647 z"
   id="path3836"
   inkscape:connector-curvature="0"
   style="fill:#a5efac" />
	<path
   clip-path="url(#SVGID_2_)"
   d="m 106.031,63.057 c 0,0 -0.648,0 -0.648,0.647 v 5.624 c 0,0 0,0.648 0.648,0.648 h 14.85 c 0,0 0.648,0 0.648,-0.648 v -5.624 c 0,0 0,-0.647 -0.648,-0.647 z"
   id="path3838"
   inkscape:connector-curvature="0"
   style="fill:#a5efac" />
	<path
   clip-path="url(#SVGID_2_)"
   d="m 24.146,63.057 c 0,0 -0.648,0 -0.648,0.647 v 5.624 c 0,0 0,0.648 0.648,0.648 h 14.85 c 0,0 0.648,0 0.648,-0.648 v -5.624 c 0,0 0,-0.647 -0.648,-0.647 z"
   id="path3840"
   inkscape:connector-curvature="0"
   style="fill:#a5efac" />
	<path
   clip-path="url(#SVGID_2_)"
   d="m 54.132,52.677 c 0,0 -0.647,0 -0.647,0.647 v 5.624 c 0,0 0,0.648 0.647,0.648 h 5.624 c 0,0 0.648,0 0.648,-0.648 v -5.624 c 0,0 0,-0.647 -0.648,-0.647 z"
   id="path3842"
   inkscape:connector-curvature="0"
   style="fill:#a5efac" />
	<path
   clip-path="url(#SVGID_2_)"
   d="m 43.752,52.677 c 0,0 -0.648,0 -0.648,0.647 v 5.624 c 0,0 0,0.648 0.648,0.648 h 5.624 c 0,0 0.647,0 0.647,-0.648 v -5.624 c 0,0 0,-0.647 -0.647,-0.647 z"
   id="path3844"
   inkscape:connector-curvature="0"
   style="fill:#a5efac" />
	<path
   clip-path="url(#SVGID_2_)"
   d="m 24.146,52.677 c 0,0 -0.648,0 -0.648,0.647 v 5.624 c 0,0 0,0.648 0.648,0.648 h 14.85 c 0,0 0.648,0 0.648,-0.648 v -5.624 c 0,0 0,-0.647 -0.648,-0.647 z"
   id="path3846"
   inkscape:connector-curvature="0"
   style="fill:#a5efac" />
	<path
   clip-path="url(#SVGID_2_)"
   d="m 64.512,52.677 c 0,0 -0.648,0 -0.648,0.647 v 5.624 c 0,0 0,0.648 0.648,0.648 h 5.624 c 0,0 0.647,0 0.647,-0.648 v -5.624 c 0,0 0,-0.647 -0.647,-0.647 z"
   id="path3848"
   inkscape:connector-curvature="0"
   style="fill:#a5efac" />
	<path
   clip-path="url(#SVGID_2_)"
   d="m 74.892,52.677 c 0,0 -0.647,0 -0.647,0.647 v 5.624 c 0,0 0,0.648 0.647,0.648 h 5.624 c 0,0 0.648,0 0.648,-0.648 v -5.624 c 0,0 0,-0.647 -0.648,-0.647 z"
   id="path3850"
   inkscape:connector-curvature="0"
   style="fill:#a5efac" />
	<path
   clip-path="url(#SVGID_2_)"
   d="m 85.271,52.677 c 0,0 -0.648,0 -0.648,0.647 v 5.624 c 0,0 0,0.648 0.648,0.648 h 5.624 c 0,0 0.647,0 0.647,-0.648 v -5.624 c 0,0 0,-0.647 -0.647,-0.647 z"
   id="path3852"
   inkscape:connector-curvature="0"
   style="fill:#a5efac" />
	<path
   clip-path="url(#SVGID_2_)"
   d="m 95.651,52.677 c 0,0 -0.647,0 -0.647,0.647 v 5.624 c 0,0 0,0.648 0.647,0.648 h 5.624 c 0,0 0.648,0 0.648,-0.648 v -5.624 c 0,0 0,-0.647 -0.648,-0.647 z"
   id="path3854"
   inkscape:connector-curvature="0"
   style="fill:#a5efac" />
	<path
   clip-path="url(#SVGID_2_)"
   d="m 106.031,52.677 c 0,0 -0.648,0 -0.648,0.647 v 5.624 c 0,0 0,0.648 0.648,0.648 h 14.989 c 0,0 0.647,0 0.647,-0.648 v -5.624 c 0,0 0,-0.647 -0.647,-0.647 z"
   id="path3856"
   inkscape:connector-curvature="0"
   style="fill:#a5efac" />
	<path
   clip-path="url(#SVGID_2_)"
   d="m 49.519,42.297 c 0,0 -0.648,0 -0.648,0.647 v 5.624 c 0,0 0,0.648 0.648,0.648 h 5.624 c 0,0 0.648,0 0.648,-0.648 v -5.624 c 0,0 0,-0.647 -0.648,-0.647 z"
   id="path3858"
   inkscape:connector-curvature="0"
   style="fill:#a5efac" />
	<path
   clip-path="url(#SVGID_2_)"
   d="m 39.139,42.297 c 0,0 -0.648,0 -0.648,0.647 v 5.624 c 0,0 0,0.648 0.648,0.648 h 5.624 c 0,0 0.648,0 0.648,-0.648 v -5.624 c 0,0 0,-0.647 -0.648,-0.647 z"
   id="path3860"
   inkscape:connector-curvature="0"
   style="fill:#a5efac" />
	<path
   clip-path="url(#SVGID_2_)"
   d="m 24.146,42.297 c 0,0 -0.648,0 -0.648,0.647 v 5.624 c 0,0 0,0.648 0.648,0.648 h 10.237 c 0,0 0.648,0 0.648,-0.648 v -5.624 c 0,0 0,-0.647 -0.648,-0.647 z"
   id="path3862"
   inkscape:connector-curvature="0"
   style="fill:#a5efac" />
	<path
   clip-path="url(#SVGID_2_)"
   d="m 59.898,42.297 c 0,0 -0.648,0 -0.648,0.647 v 5.624 c 0,0 0,0.648 0.648,0.648 h 5.624 c 0,0 0.648,0 0.648,-0.648 v -5.624 c 0,0 0,-0.647 -0.648,-0.647 z"
   id="path3864"
   inkscape:connector-curvature="0"
   style="fill:#a5efac" />
	<path
   clip-path="url(#SVGID_2_)"
   d="m 70.278,42.297 c 0,0 -0.647,0 -0.647,0.647 v 5.624 c 0,0 0,0.648 0.647,0.648 h 5.624 c 0,0 0.648,0 0.648,-0.648 v -5.624 c 0,0 0,-0.647 -0.648,-0.647 z"
   id="path3866"
   inkscape:connector-curvature="0"
   style="fill:#a5efac" />
	<path
   clip-path="url(#SVGID_2_)"
   d="m 80.658,42.297 c 0,0 -0.648,0 -0.648,0.647 v 5.624 c 0,0 0,0.648 0.648,0.648 h 5.624 c 0,0 0.647,0 0.647,-0.648 v -5.624 c 0,0 0,-0.647 -0.647,-0.647 z"
   id="path3868"
   inkscape:connector-curvature="0"
   style="fill:#a5efac" />
	<path
   clip-path="url(#SVGID_2_)"
   d="m 91.038,42.297 c 0,0 -0.647,0 -0.647,0.647 v 5.624 c 0,0 0,0.648 0.647,0.648 h 5.624 c 0,0 0.648,0 0.648,-0.648 v -5.624 c 0,0 0,-0.647 -0.648,-0.647 z"
   id="path3870"
   inkscape:connector-curvature="0"
   style="fill:#a5efac" />
	<path
   clip-path="url(#SVGID_2_)"
   d="m 101.418,42.297 c 0,0 -0.648,0 -0.648,0.647 v 5.624 c 0,0 0,0.648 0.648,0.648 h 5.624 c 0,0 0.647,0 0.647,-0.648 v -5.624 c 0,0 0,-0.647 -0.647,-0.647 z"
   id="path3872"
   inkscape:connector-curvature="0"
   style="fill:#a5efac" />
	<path
   clip-path="url(#SVGID_2_)"
   d="m 111.798,42.297 c 0,0 -0.647,0 -0.647,0.647 v 5.624 c 0,0 0,0.648 0.647,0.648 h 9.222 c 0,0 0.648,0 0.648,-0.648 v -5.624 c 0,0 0,-0.647 -0.648,-0.647 z"
   id="path3874"
   inkscape:connector-curvature="0"
   style="fill:#a5efac" />
	<path
   clip-path="url(#SVGID_2_)"
   d="m 74.635,31.916 c 0,0 -0.647,0 -0.647,0.648 v 5.624 c 0,0 0,0.648 0.647,0.648 h 5.625 c 0,0 0.647,0 0.647,-0.648 v -5.624 c 0,0 0,-0.648 -0.647,-0.648 z"
   id="path3876"
   inkscape:connector-curvature="0"
   style="fill:#a5efac" />
	<path
   clip-path="url(#SVGID_2_)"
   d="m 64.537,31.916 c 0,0 -0.647,0 -0.647,0.648 v 5.624 c 0,0 0,0.648 0.647,0.648 h 5.625 c 0,0 0.647,0 0.647,-0.648 v -5.624 c 0,0 0,-0.648 -0.647,-0.648 z"
   id="path3878"
   inkscape:connector-curvature="0"
   style="fill:#a5efac" />
	<path
   clip-path="url(#SVGID_2_)"
   d="m 54.439,31.916 c 0,0 -0.648,0 -0.648,0.648 v 5.624 c 0,0 0,0.648 0.648,0.648 h 5.624 c 0,0 0.647,0 0.647,-0.648 v -5.624 c 0,0 0,-0.648 -0.647,-0.648 z"
   id="path3880"
   inkscape:connector-curvature="0"
   style="fill:#a5efac" />
	<path
   clip-path="url(#SVGID_2_)"
   d="m 44.342,31.916 c 0,0 -0.648,0 -0.648,0.648 v 5.624 c 0,0 0,0.648 0.648,0.648 h 5.624 c 0,0 0.647,0 0.647,-0.648 v -5.624 c 0,0 0,-0.648 -0.647,-0.648 z"
   id="path3882"
   inkscape:connector-curvature="0"
   style="fill:#a5efac" />
	<path
   clip-path="url(#SVGID_2_)"
   d="m 34.244,31.916 c 0,0 -0.648,0 -0.648,0.648 v 5.624 c 0,0 0,0.648 0.648,0.648 h 5.624 c 0,0 0.648,0 0.648,-0.648 v -5.624 c 0,0 0,-0.648 -0.648,-0.648 z"
   id="path3884"
   inkscape:connector-curvature="0"
   style="fill:#a5efac" />
	<path
   clip-path="url(#SVGID_2_)"
   d="m 24.146,31.916 c 0,0 -0.648,0 -0.648,0.648 v 5.624 c 0,0 0,0.648 0.648,0.648 h 5.624 c 0,0 0.648,0 0.648,-0.648 v -5.624 c 0,0 0,-0.648 -0.648,-0.648 z"
   id="path3886"
   inkscape:connector-curvature="0"
   style="fill:#a5efac" />
	<path
   clip-path="url(#SVGID_2_)"
   d="m 84.733,31.916 c 0,0 -0.647,0 -0.647,0.648 v 5.624 c 0,0 0,0.648 0.647,0.648 h 5.624 c 0,0 0.648,0 0.648,-0.648 v -5.624 c 0,0 0,-0.648 -0.648,-0.648 z"
   id="path3888"
   inkscape:connector-curvature="0"
   style="fill:#a5efac" />
	<path
   clip-path="url(#SVGID_2_)"
   d="m 94.832,31.916 c 0,0 -0.648,0 -0.648,0.648 v 5.624 c 0,0 0,0.648 0.648,0.648 h 5.623 c 0,0 0.648,0 0.648,-0.648 v -5.624 c 0,0 0,-0.648 -0.648,-0.648 z"
   id="path3890"
   inkscape:connector-curvature="0"
   style="fill:#a5efac" />
	<path
   clip-path="url(#SVGID_2_)"
   d="m 104.93,31.916 c 0,0 -0.648,0 -0.648,0.648 v 5.624 c 0,0 0,0.648 0.648,0.648 h 5.623 c 0,0 0.648,0 0.648,-0.648 v -5.624 c 0,0 0,-0.648 -0.648,-0.648 z"
   id="path3892"
   inkscape:connector-curvature="0"
   style="fill:#a5efac" />
	<path
   clip-path="url(#SVGID_2_)"
   d="m 115.027,31.916 c 0,0 -0.648,0 -0.648,0.648 v 5.624 c 0,0 0,0.648 0.648,0.648 h 5.624 c 0,0 0.647,0 0.647,-0.648 v -5.624 c 0,0 0,-0.648 -0.647,-0.648 z"
   id="path3894"
   inkscape:connector-curvature="0"
   style="fill:#a5efac" />
</g>
</svg>